<?xml version="1.0" encoding="UTF-8"?>
<svg id="Layer_2" data-name="Layer 2" xmlns="http://www.w3.org/2000/svg" viewBox="0 0 332.94 337.89">
  <defs>
    <style>
      .cls-1 {
        fill: #273043;
      }

      .cls-2 {
        fill: #181e28;
      }

      .cls-3 {
        fill: #31af8b;
      }

      .cls-4 {
        fill: #289976;
      }
    </style>
  </defs>
  <g id="Layer_1-2" data-name="Layer 1">
    <g>
      <g>
        <g>
          <path class="cls-1" d="m158.96,172.22h43.26c26.02,0,47.84-20.44,48.63-46.45.02-.69.03-1.39.03-2.09,0-35.08-26.45-57.36-67.38-57.36h-87.15c-4.45,0-7.24,2.51-7.24,7.24v57.08h46.57c-.05-.7-.08-1.41-.08-2.13,0-18.68,15.72-33.68,34.65-32.5,16.22,1.01,29.42,14.21,30.43,30.43,1.17,18.93-13.83,34.65-32.51,34.65-.08,0-.16,0-.25,0h0s-78.82,0-78.82,0v92.07c0,4.73,2.78,7.24,7.24,7.24h32.85c4,0,7.24-3.24,7.24-7.24v-58.75h.03c.17-12.28,10.17-22.18,22.48-22.18Z"/>
          <path class="cls-1" d="m96.35,258.57c-3.6,0-5.43-1.83-5.43-5.43v-90.25h77.25c9.45,0,18.58-3.95,25.06-10.84,6.56-6.99,9.85-16.12,9.26-25.73-1.07-17.24-14.88-31.05-32.12-32.12-.73-.05-1.46-.07-2.19-.07-18.96,0-34.38,15.42-34.38,34.38,0,.11,0,.21,0,.31h-42.87v-55.27c0-3.6,1.83-5.43,5.43-5.43h87.15c39.83,0,65.57,21.8,65.57,55.54,0,.68-.01,1.36-.03,2.04-.75,24.65-21.75,44.69-46.82,44.69h-43.26c-13.1,0-23.93,10.58-24.29,23.65-.02.11-.03.23-.03.34v58.75c0,2.99-2.43,5.43-5.43,5.43h-32.86Z"/>
        </g>
        <g>
          <path class="cls-2" d="m208.05,126.43c-1.01-16.22-14.21-29.42-30.43-30.43-1.95-.12-3.86-.06-5.73.15,15.46,1.76,27.82,14.61,28.79,30.28,1.17,18.93-13.83,34.65-32.51,34.65h7.12c.08,0,.16,0,.25,0,18.68,0,33.68-15.72,32.51-34.65Z"/>
          <path class="cls-2" d="m187.75,156.77c1.98-1.37,3.82-2.94,5.48-4.71,6.57-6.99,9.86-16.13,9.26-25.73-.66-10.72-6.5-20.31-15.02-26.17,10.49,4.42,18.02,14.49,18.76,26.4.53,8.6-2.41,16.78-8.28,23.03-2.94,3.13-6.4,5.56-10.2,7.2Z"/>
          <path class="cls-2" d="m167.93,161.08h.25c-.08,0-.16,0-.25,0h0Z"/>
          <path class="cls-2" d="m167.93,161.08h.25c-.08,0-.16,0-.25,0h0Z"/>
          <path class="cls-2" d="m96.48,73.56c0-4.73,2.78-7.24,7.24-7.24h-7.36c-4.45,0-7.24,2.51-7.24,7.24v57.08h7.36v-57.08Z"/>
          <path class="cls-2" d="m90.93,128.82v-55.27c0-3.52,1.75-5.35,5.2-5.42-.95,1.44-1.46,3.28-1.46,5.42v55.27h-3.74Z"/>
          <path class="cls-2" d="m96.48,253.14v-92.07h-7.36v92.07c0,4.73,2.78,7.24,7.24,7.24h7.36c-4.45,0-7.24-2.51-7.24-7.24Z"/>
          <path class="cls-2" d="m96.12,258.57c-3.45-.08-5.2-1.9-5.2-5.42v-90.25h3.74v90.25c0,2.15.51,3.98,1.46,5.42Z"/>
        </g>
        <g>
          <path class="cls-3" d="m151.63,187.64c1.49-.07,2.51-.16,3.53-.16,17.17-.03,34.33-.07,51.5,0,1.08,0,2.48.7,3.17,1.53,14.37,17.49,40.22,46.59,54.52,64.14,1.54,1.89,3.04,3.81,4.9,6.15-2.1,0-3.7,0-5.29,0-17.09.01-34.18.05-51.27-.03-.93,0-2.13-.7-2.75-1.45-6.01-7.33-11.92-14.73-17.86-22.12-9.18-11.43-29.91-34.42-39.08-45.86-.44-.55-.75-1.2-1.36-2.2Z"/>
          <path class="cls-3" d="m237.54,257.51c-8.29,0-16.57-.01-24.85-.05-.28,0-1.01-.36-1.36-.79-4.92-6-9.86-12.16-14.64-18.11l-3.21-3.99c-4.57-5.7-12.11-14.38-19.41-22.77-7.16-8.24-14.55-16.75-19.19-22.49.09,0,6.76-.01,6.76-.01,8.07-.01,16.14-.03,24.21-.03,6.93,0,13.86.01,20.79.04.53,0,1.43.44,1.78.87,6.92,8.42,16.69,19.75,26.13,30.71,10.31,11.96,20.97,24.32,28.38,33.42.84,1.03,1.67,2.07,2.55,3.19l-27.95.02Z"/>
          <path class="cls-4" d="m220.82,259.27c-.93,0-2.13-.7-2.75-1.45-6.01-7.33-11.92-14.73-17.86-22.12-9.18-11.43-29.91-34.42-39.08-45.86-.44-.55-.75-1.2-1.36-2.2,1.49-.07,2.51-.16,3.53-.16,7.21-.01,14.42-.02,21.64-.03-9.92,0-19.85.02-29.77.03-1.02,0-2.04.09-3.53.16.61.99.92,1.65,1.36,2.2,9.17,11.44,29.9,34.43,39.08,45.86,5.93,7.39,11.85,14.79,17.86,22.12.62.75,1.82,1.45,2.75,1.45,10.52.05,21.03.05,31.55.04-7.8,0-15.61,0-23.41-.04Z"/>
          <path class="cls-4" d="m212.69,257.46c-.27,0-1.01-.36-1.36-.79-4.93-6.01-9.88-12.18-14.67-18.15l-3.18-3.96c-4.57-5.7-12.12-14.38-19.41-22.77-7.16-8.24-14.55-16.75-19.19-22.49.09,0,2.6,0,3.76,0,.04.07.07.13.11.19.32.55.59,1.03.96,1.49,4.64,5.8,12.33,14.64,19.76,23.2,7.27,8.37,14.79,17.02,19.32,22.66l3.18,3.96c4.4,5.48,8.93,11.13,13.47,16.68-.92,0-1.84,0-2.75-.01Z"/>
        </g>
      </g>
      <g>
        <path class="cls-3" d="m332.94,214.44c-9.61,33.72-29.95,64.32-57.48,86.35-30.35,24.27-66.93,37.11-105.8,37.11C76.1,337.89,0,261.79,0,168.23c0-42.42,15.81-83.06,44.5-114.43C71.59,24.22,108.12,5.17,147.55,0v10.22C69.09,21.12,10.13,88.76,10.13,168.23c0,87.96,71.57,159.53,159.53,159.53,69.85,0,132.44-46.53,152.69-113.32h10.59Z"/>
        <path class="cls-3" d="m332.94,214.44c-9.61,33.72-29.95,64.32-57.48,86.35-30.35,24.27-66.93,37.11-105.8,37.11C76.1,337.89,0,261.79,0,168.23c0-42.42,15.81-83.06,44.5-114.43C71.59,24.22,108.12,5.17,147.55,0v10.22C69.09,21.12,10.13,88.76,10.13,168.23c0,87.96,71.57,159.53,159.53,159.53,69.85,0,132.44-46.53,152.69-113.32h10.59Z"/>
        <path class="cls-3" d="m332.94,214.44c-9.61,33.72-29.95,64.32-57.48,86.35-30.35,24.27-66.93,37.11-105.8,37.11C76.1,337.89,0,261.79,0,168.23c0-42.42,15.81-83.06,44.5-114.43C71.59,24.22,108.12,5.17,147.55,0v10.22C69.09,21.12,10.13,88.76,10.13,168.23c0,87.96,71.57,159.53,159.53,159.53,69.85,0,132.44-46.53,152.69-113.32h10.59Z"/>
        <path class="cls-3" d="m332.94,214.44c-9.61,33.72-29.95,64.32-57.48,86.35-30.35,24.27-66.93,37.11-105.8,37.11C76.1,337.89,0,261.79,0,168.23c0-42.42,15.81-83.06,44.5-114.43C71.59,24.22,108.12,5.17,147.55,0v10.22C69.09,21.12,10.13,88.76,10.13,168.23c0,87.96,71.57,159.53,159.53,159.53,69.85,0,132.44-46.53,152.69-113.32h10.59Z"/>
      </g>
    </g>
  </g>
</svg>
